<svg width="19" height="5" viewBox="0 0 19 5" fill="none" xmlns="http://www.w3.org/2000/svg">
<path d="M1.82897 0.671304C2.3994 0.671304 2.84114 0.834782 3.15418 1.16174C3.46723 1.48174 3.62375 1.8887 3.62375 2.38261C3.62375 2.86261 3.46723 3.25913 3.15418 3.57217C2.84114 3.88522 2.3994 4.04174 1.82897 4.04174C1.2794 4.04174 0.84462 3.8887 0.52462 3.58261C0.20462 3.26957 0.0446196 2.86609 0.0446196 2.37217C0.0446196 1.88522 0.201141 1.48174 0.514185 1.16174C0.827228 0.834782 1.26549 0.671304 1.82897 0.671304ZM9.04772 0.671304C9.61815 0.671304 10.0599 0.834782 10.3729 1.16174C10.686 1.48174 10.8425 1.8887 10.8425 2.38261C10.8425 2.86261 10.686 3.25913 10.3729 3.57217C10.0599 3.88522 9.61815 4.04174 9.04772 4.04174C8.49815 4.04174 8.06337 3.8887 7.74337 3.58261C7.42337 3.26957 7.26337 2.86609 7.26337 2.37217C7.26337 1.88522 7.41989 1.48174 7.73293 1.16174C8.04598 0.834782 8.48424 0.671304 9.04772 0.671304ZM16.2665 0.671304C16.8369 0.671304 17.2786 0.834782 17.5917 1.16174C17.9047 1.48174 18.0612 1.8887 18.0612 2.38261C18.0612 2.86261 17.9047 3.25913 17.5917 3.57217C17.2786 3.88522 16.8369 4.04174 16.2665 4.04174C15.7169 4.04174 15.2821 3.8887 14.9621 3.58261C14.6421 3.26957 14.4821 2.86609 14.4821 2.37217C14.4821 1.88522 14.6386 1.48174 14.9517 1.16174C15.2647 0.834782 15.703 0.671304 16.2665 0.671304Z" fill="#8A63F7"/>
</svg>
