<svg width="21" height="21" viewBox="0 0 21 21" fill="none" xmlns="http://www.w3.org/2000/svg">
<path fill-rule="evenodd" clip-rule="evenodd" d="M11.4385 13.9515C12.6139 13.9515 13.5706 14.9014 13.5706 16.069V19.0719C13.5706 19.3227 13.7717 19.5239 14.0294 19.5297H15.8901C17.3564 19.5297 18.5484 18.3524 18.5484 16.9056V8.38898C18.5415 7.8911 18.3043 7.42251 17.8972 7.1111L11.4609 1.97808C10.597 1.29375 9.38839 1.29375 8.5215 1.98004L2.12916 7.10914C1.70645 7.43032 1.46922 7.89891 1.46434 8.40558V16.9056C1.46434 18.3524 2.65632 19.5297 4.12261 19.5297H6.00088C6.26544 19.5297 6.48021 19.3198 6.48021 19.0621C6.48021 19.0055 6.48704 18.9489 6.49876 18.8952V16.069C6.49876 14.9082 7.4496 13.9593 8.6162 13.9515H11.4385ZM15.8901 20.9941H14.0118C12.936 20.9687 12.1062 20.1242 12.1062 19.0719V16.069C12.1062 15.7087 11.8065 15.4159 11.4385 15.4159H8.62108C8.26085 15.4178 7.9631 15.7117 7.9631 16.069V19.0621C7.9631 19.1353 7.95334 19.2056 7.93284 19.272C7.8274 20.2384 7.00151 20.9941 6.00088 20.9941H4.12261C1.84898 20.9941 0 19.1597 0 16.9056V8.39874C0.00976229 7.42837 0.456875 6.54 1.22907 5.95524L7.60873 0.83492C9.01352 -0.277981 10.9709 -0.277981 12.3727 0.832968L18.7983 5.95817C19.5529 6.53317 20 7.41959 20.0127 8.37824V16.9056C20.0127 19.1597 18.1637 20.9941 15.8901 20.9941Z" fill="#E1D7FF"/>
</svg>
