<svg width="17" height="22" viewBox="0 0 17 22" fill="none" xmlns="http://www.w3.org/2000/svg">
<path fill-rule="evenodd" clip-rule="evenodd" d="M16.872 17.2484C16.872 20.7592 12.0575 21.165 8.43707 21.165L8.17799 21.1648C5.87134 21.1592 0 21.0136 0 17.2271C0 13.788 4.62101 13.3284 8.21391 13.3111L8.69615 13.3108C11.0026 13.3164 16.872 13.462 16.872 17.2484ZM8.43707 14.9083C3.89846 14.9083 1.59773 15.688 1.59773 17.2271C1.59773 18.7801 3.89846 19.5673 8.43707 19.5673C12.9746 19.5673 15.2743 18.7876 15.2743 17.2484C15.2743 15.6954 12.9746 14.9083 8.43707 14.9083ZM8.43707 0C11.5558 0 14.092 2.53719 14.092 5.65596C14.092 8.77473 11.5558 11.3109 8.43707 11.3109H8.40299C5.29061 11.3013 2.7694 8.76301 2.78001 5.65277C2.78001 2.53719 5.31724 0 8.43707 0ZM8.43707 1.52104C6.15658 1.52104 4.30106 3.37547 4.30106 5.65596C4.29363 7.929 6.13528 9.78236 8.40619 9.79088L8.43707 10.5514V9.79088C10.7165 9.79088 12.5709 7.93539 12.5709 5.65596C12.5709 3.37547 10.7165 1.52104 8.43707 1.52104Z" fill="#9972FF"/>
</svg>
