<svg width="23" height="24" viewBox="0 0 23 24" fill="none" xmlns="http://www.w3.org/2000/svg">
<path fill-rule="evenodd" clip-rule="evenodd" d="M8.99291 4.63716C9.46199 5.0055 9.73174 5.55475 9.73174 6.14408C9.73174 10.8945 9.89208 12.1728 10.5475 12.6592C10.9776 12.9767 11.5669 12.9734 13.5527 12.9182C14.4757 12.8911 15.6576 12.8564 17.2057 12.8564C17.8232 12.8564 18.4049 13.1207 18.7992 13.5812C19.1654 14.0091 19.3257 14.5681 19.2412 15.1184C18.5176 19.8038 14.5309 23.2066 9.76208 23.2066C4.47108 23.2066 0.166992 18.9025 0.166992 13.6126C0.166992 9.41791 3.33899 5.22325 7.23791 4.26341C7.84674 4.115 8.50108 4.25366 8.99291 4.63716ZM7.73083 5.82883C7.69616 5.82883 7.66149 5.83316 7.62683 5.84183C4.40933 6.63375 1.79199 10.1199 1.79199 13.6126C1.79199 18.0066 5.36699 21.5816 9.76208 21.5816C13.7238 21.5816 17.0345 18.7595 17.6347 14.8703C17.639 14.8378 17.6542 14.7436 17.5653 14.6385C17.4808 14.5399 17.3465 14.4814 17.2057 14.4814C15.6771 14.4814 14.5103 14.5161 13.5992 14.5421C11.3936 14.6082 10.4814 14.6331 9.58008 13.9647C8.29124 13.0099 8.12179 11.4047 8.1078 6.90029L8.10674 6.14408C8.10674 6.05308 8.06774 5.97725 7.98974 5.91658C7.91716 5.85916 7.82508 5.82883 7.73083 5.82883ZM19.7216 3.04499C21.6261 4.9484 22.8351 7.44982 22.8004 9.41824C22.7874 10.1863 22.2295 10.8277 21.4755 10.9414C20.0043 11.1635 18.2818 11.2307 16.7576 11.2307C15.3384 11.2307 14.0893 11.1732 13.3711 11.1321C12.4676 11.079 11.7483 10.3586 11.6963 9.45507C11.6118 8.0229 11.4287 4.38399 11.5587 1.56949C11.5944 0.751572 12.2553 0.100488 13.0634 0.0864051C15.3785 0.0192384 17.7673 1.0939 19.7216 3.04499ZM13.2021 1.71032H13.1783C13.0591 4.43924 13.2357 7.9644 13.318 9.36082C13.3223 9.44424 13.383 9.5049 13.4653 9.50924C14.579 9.57315 18.4162 9.75082 21.1755 9.34457C21.1819 7.82357 20.1408 5.7609 18.5733 4.19441C16.9656 2.58891 15.0633 1.71032 13.2021 1.71032Z" fill="#E5DBFF"/>
</svg>
