<svg width="22" height="18" viewBox="0 0 22 18" fill="none" xmlns="http://www.w3.org/2000/svg">
<path fill-rule="evenodd" clip-rule="evenodd" d="M17.451 -0.000305176C19.683 -0.000305176 21.499 1.79769 21.499 4.00669L21.5 6.60069C21.5 6.79869 21.421 6.99069 21.28 7.13069C21.14 7.27169 20.949 7.35069 20.75 7.35069C19.963 7.35069 19.323 7.97869 19.323 8.75069C19.323 9.52269 19.963 10.1507 20.75 10.1507C21.164 10.1507 21.5 10.4867 21.5 10.9007V13.4927C21.5 15.7017 19.684 17.4997 17.452 17.4997H4.048C1.816 17.4997 0 15.7017 0 13.4927V10.9007C0 10.4867 0.336 10.1507 0.75 10.1507C1.537 10.1507 2.177 9.52269 2.177 8.75069C2.177 8.00069 1.563 7.43469 0.75 7.43469C0.551 7.43469 0.36 7.35569 0.22 7.21469C0.079 7.07469 0 6.88269 0 6.68469L0.001 4.00669C0.001 1.79769 1.817 -0.000305176 4.049 -0.000305176H17.451ZM17.451 1.49969H13.349L13.3496 3.42089C13.3496 3.83489 13.0136 4.17089 12.5996 4.17089C12.1856 4.17089 11.8496 3.83489 11.8496 3.42089L11.849 1.49969H4.049C2.644 1.49969 1.501 2.62469 1.501 4.00669L1.5 6.02469C2.767 6.33569 3.677 7.42169 3.677 8.75069C3.677 10.0927 2.751 11.2247 1.5 11.5537V13.4927C1.5 14.8747 2.643 15.9997 4.048 15.9997H11.849L11.8496 14.5112C11.8496 14.0962 12.1856 13.7612 12.5996 13.7612C13.0136 13.7612 13.3496 14.0962 13.3496 14.5112L13.349 15.9997H17.452C18.857 15.9997 20 14.8747 20 13.4927V11.5537C18.749 11.2247 17.823 10.0927 17.823 8.75069C17.823 7.40769 18.748 6.27669 20 5.94769L19.999 4.00669C19.999 2.62469 18.856 1.49969 17.451 1.49969ZM12.5996 5.50419C13.0136 5.50419 13.3496 5.84019 13.3496 6.25419V11.0752C13.3496 11.4892 13.0136 11.8252 12.5996 11.8252C12.1856 11.8252 11.8496 11.4892 11.8496 11.0752V6.25419C11.8496 5.84019 12.1856 5.50419 12.5996 5.50419Z" fill="#9972FF"/>
</svg>
