<svg width="24" height="24" viewBox="0 0 24 24" fill="none" xmlns="http://www.w3.org/2000/svg">
<path fill-rule="evenodd" clip-rule="evenodd" d="M11.6667 0C18.0997 0 23.3333 5.23367 23.3333 11.6667C23.3333 18.0997 18.0997 23.3333 11.6667 23.3333C5.23367 23.3333 0 18.0997 0 11.6667C0 5.23367 5.23367 0 11.6667 0ZM11.6667 1.75C6.1985 1.75 1.75 6.1985 1.75 11.6667C1.75 17.1348 6.1985 21.5833 11.6667 21.5833C17.1348 21.5833 21.5833 17.1348 21.5833 11.6667C21.5833 6.1985 17.1348 1.75 11.6667 1.75ZM11.2714 5.94463C11.7556 5.94463 12.1464 6.33663 12.1464 6.81963V11.9786L16.1189 14.347C16.5331 14.5955 16.6696 15.1321 16.4222 15.5475C16.2577 15.8216 15.9672 15.9745 15.6697 15.9745C15.5169 15.9745 15.3629 15.9348 15.2217 15.852L10.8234 13.2281C10.5597 13.0695 10.3964 12.7836 10.3964 12.4756V6.81963C10.3964 6.33663 10.7884 5.94463 11.2714 5.94463Z" fill="#E1D7FF"/>
</svg>
