<svg width="22" height="21" viewBox="0 0 22 21" fill="none" xmlns="http://www.w3.org/2000/svg">
<path fill-rule="evenodd" clip-rule="evenodd" d="M15.596 0C19.1184 0 21.9837 2.86526 21.9837 6.38878V14.0334C21.9837 17.5558 19.1184 20.4222 15.596 20.4222H6.38879C2.86633 20.4222 0 17.5558 0 14.0334V6.38878C0 2.86526 2.86633 0 6.38879 0H15.596ZM15.596 1.59773H6.38879C3.74721 1.59773 1.59773 3.74721 1.59773 6.38878V14.0334C1.59773 16.675 3.74721 18.8244 6.38879 18.8244H15.596C18.2375 18.8244 20.386 16.675 20.386 14.0334V13.7351L16.8732 13.7358C14.8526 13.7358 13.208 12.0923 13.2069 10.0727C13.2069 8.05106 14.8515 6.40647 16.8732 6.4054L20.386 6.40476V6.38878C20.386 3.74721 18.2375 1.59773 15.596 1.59773ZM20.386 8.00249L16.8732 8.00313C15.7324 8.0042 14.8047 8.93194 14.8047 10.0717C14.8047 11.2103 15.7335 12.1381 16.8732 12.1381L20.386 12.1374V8.00249ZM17.3606 9.20675C17.8016 9.20675 18.1595 9.56464 18.1595 10.0056C18.1595 10.4466 17.8016 10.8045 17.3606 10.8045H17.0283C16.5873 10.8045 16.2294 10.4466 16.2294 10.0056C16.2294 9.56464 16.5873 9.20675 17.0283 9.20675H17.3606ZM11.3812 4.83377C11.8221 4.83377 12.18 5.19166 12.18 5.63263C12.18 6.07361 11.8221 6.4315 11.3812 6.4315H5.6304C5.18942 6.4315 4.83153 6.07361 4.83153 5.63263C4.83153 5.19166 5.18942 4.83377 5.6304 4.83377H11.3812Z" fill="#E1D7FF"/>
</svg>
