<svg width="16" height="14" viewBox="0 0 16 14" fill="none" xmlns="http://www.w3.org/2000/svg">
<path fill-rule="evenodd" clip-rule="evenodd" d="M12.4899 8.42331C13.9199 8.42331 15.0833 9.58081 15.0833 11.0033C15.0833 12.4258 13.9199 13.5833 12.4899 13.5833C11.0591 13.5833 9.89492 12.4258 9.89492 11.0033C9.89492 9.58081 11.0591 8.42331 12.4899 8.42331ZM12.4899 9.67331C11.7483 9.67331 11.1449 10.27 11.1449 11.0033C11.1449 11.7375 11.7483 12.3333 12.4899 12.3333C13.2308 12.3333 13.8333 11.7375 13.8333 11.0033C13.8333 10.27 13.2308 9.67331 12.4899 9.67331ZM6.40025 10.4106C6.74525 10.4106 7.02525 10.6906 7.02525 11.0356C7.02525 11.3806 6.74525 11.6606 6.40025 11.6606H1.14942C0.804417 11.6606 0.524417 11.3806 0.524417 11.0356C0.524417 10.6906 0.804417 10.4106 1.14942 10.4106H6.40025ZM3.09417 0.333313C4.525 0.333313 5.68833 1.49165 5.68833 2.91415C5.68833 4.33665 4.525 5.49331 3.09417 5.49331C1.66417 5.49331 0.5 4.33665 0.5 2.91415C0.5 1.49165 1.66417 0.333313 3.09417 0.333313ZM3.09417 1.58331C2.35333 1.58331 1.75 2.17998 1.75 2.91415C1.75 3.64748 2.35333 4.24331 3.09417 4.24331C3.83583 4.24331 4.43833 3.64748 4.43833 2.91415C4.43833 2.17998 3.83583 1.58331 3.09417 1.58331ZM13.9926 2.33365C14.3376 2.33365 14.6176 2.61365 14.6176 2.95865C14.6176 3.30365 14.3376 3.58365 13.9926 3.58365H8.74258C8.39758 3.58365 8.11758 3.30365 8.11758 2.95865C8.11758 2.61365 8.39758 2.33365 8.74258 2.33365H13.9926Z" fill="#503892"/>
</svg>
