<svg width="8" height="13" viewBox="0 0 8 13" fill="none" xmlns="http://www.w3.org/2000/svg">
<path d="M3.71387 2.08594C3.42676 2.09961 3.17611 2.15202 2.96191 2.24316C2.74772 2.32975 2.57682 2.45964 2.44922 2.63281C2.19857 2.97005 2.07324 3.32324 2.07324 3.69238C2.07324 3.91113 2.11198 4.10938 2.18945 4.28711C2.27148 4.46029 2.38314 4.61296 2.52441 4.74512C2.67025 4.87272 2.84342 4.9821 3.04395 5.07324C3.24447 5.15983 3.46777 5.22819 3.71387 5.27832V2.08594ZM5.99023 9.42773C6.14518 9.15885 6.22266 8.8444 6.22266 8.48438C6.22266 7.91927 6.01302 7.48861 5.59375 7.19238C5.47526 7.10579 5.31348 7.02148 5.1084 6.93945C4.90332 6.85742 4.66406 6.77767 4.39062 6.7002V10.2754C4.77799 10.2526 5.10384 10.1729 5.36816 10.0361C5.63704 9.89486 5.8444 9.69206 5.99023 9.42773ZM3.72754 0.144531H4.39062V1.04004C4.83724 1.0765 5.23372 1.16536 5.58008 1.30664C5.92643 1.44792 6.22038 1.63477 6.46191 1.86719C6.70345 2.09505 6.88802 2.36621 7.01562 2.68066C7.14779 2.99056 7.2207 3.33691 7.23438 3.71973H6.03125C5.99479 3.37337 5.90137 3.07715 5.75098 2.83105C5.6097 2.60319 5.42285 2.43001 5.19043 2.31152C4.96257 2.18848 4.69596 2.12012 4.39062 2.10645V5.4082C4.91471 5.55404 5.35905 5.69759 5.72363 5.83887C6.08822 5.98014 6.35938 6.11458 6.53711 6.24219C7.15234 6.67057 7.45996 7.30632 7.45996 8.14941C7.45996 9.3571 7.06803 10.2184 6.28418 10.7334C6.07454 10.8656 5.80339 10.9795 5.4707 11.0752C5.13802 11.1709 4.77799 11.2438 4.39062 11.2939V12.6201H3.72754V11.2939C3.08952 11.2438 2.53809 11.1003 2.07324 10.8633C1.61296 10.6217 1.2666 10.2936 1.03418 9.87891C0.911133 9.65104 0.81543 9.37988 0.74707 9.06543C0.678711 8.75098 0.644531 8.40007 0.644531 8.0127H1.86133C1.89779 8.62793 1.99577 9.08366 2.15527 9.37988C2.22363 9.48926 2.3125 9.5918 2.42188 9.6875C2.53581 9.7832 2.66113 9.86979 2.79785 9.94727C2.93457 10.0202 3.0804 10.0817 3.23535 10.1318C3.39486 10.182 3.55436 10.2184 3.71387 10.2412V6.53613C2.75228 6.34473 2.03223 6.03027 1.55371 5.59277C1.0752 5.15072 0.835938 4.5446 0.835938 3.77441C0.835938 3.07715 1.08887 2.4528 1.59473 1.90137C1.84082 1.62793 2.14616 1.42057 2.51074 1.2793C2.87533 1.13802 3.28092 1.06283 3.72754 1.05371V0.144531Z" fill="#B29CEF"/>
</svg>
