<svg width="18" height="18" viewBox="0 0 18 18" fill="none" xmlns="http://www.w3.org/2000/svg">
<path fill-rule="evenodd" clip-rule="evenodd" d="M8.78185 0.666687C13.2568 0.666687 16.8969 4.30669 16.8969 8.78169C16.8969 10.893 16.0866 12.8186 14.7607 14.2638L17.3697 16.8673C17.6139 17.1114 17.6147 17.5064 17.3705 17.7506C17.2488 17.8739 17.088 17.9348 16.928 17.9348C16.7689 17.9348 16.6088 17.8739 16.4863 17.7523L13.8459 15.1192C12.4569 16.2316 10.6957 16.8975 8.78185 16.8975C4.30685 16.8975 0.666016 13.2567 0.666016 8.78169C0.666016 4.30669 4.30685 0.666687 8.78185 0.666687ZM8.78185 1.91669C4.99602 1.91669 1.91602 4.99585 1.91602 8.78169C1.91602 12.5675 4.99602 15.6475 8.78185 15.6475C12.5668 15.6475 15.6469 12.5675 15.6469 8.78169C15.6469 4.99585 12.5668 1.91669 8.78185 1.91669Z" fill="#503892"/>
</svg>
