<svg width="17" height="17" viewBox="0 0 17 17" fill="none" xmlns="http://www.w3.org/2000/svg">
<path d="M4 1.70711V15.5083C4 15.7845 3.77614 16.0083 3.5 16.0083C3.22386 16.0083 3 15.7845 3 15.5083V1.70711L0.853553 3.85355C0.658291 4.04882 0.341709 4.04882 0.146447 3.85355C-0.0488155 3.65829 -0.0488155 3.34171 0.146447 3.14645L3.14645 0.146447C3.34171 -0.0488155 3.65829 -0.0488155 3.85355 0.146447L6.85355 3.14645C7.04882 3.34171 7.04882 3.65829 6.85355 3.85355C6.65829 4.04882 6.34171 4.04882 6.14645 3.85355L4 1.70711ZM8.5 2C8.22386 2 8 1.77614 8 1.5C8 1.22386 8.22386 1 8.5 1H16.5C16.7761 1 17 1.22386 17 1.5C17 1.77614 16.7761 2 16.5 2H8.5ZM8.5 6C8.22386 6 8 5.77614 8 5.5C8 5.22386 8.22386 5 8.5 5H14.5C14.7761 5 15 5.22386 15 5.5C15 5.77614 14.7761 6 14.5 6H8.5ZM8.5 10C8.22386 10 8 9.77614 8 9.5C8 9.22386 8.22386 9 8.5 9H12.5C12.7761 9 13 9.22386 13 9.5C13 9.77614 12.7761 10 12.5 10H8.5ZM8.5 14C8.22386 14 8 13.7761 8 13.5C8 13.2239 8.22386 13 8.5 13H10.5C10.7761 13 11 13.2239 11 13.5C11 13.7761 10.7761 14 10.5 14H8.5Z" fill="white"/>
</svg>
